#!OML:ASF F:\VICON\USERDATA\INSTALL\rory3\rory3.ASF
:FULLY-SPECIFIED
:DEGREES
882
root 0.923424 18.1324 3.26931 -2.65621 -0.281525 -359.289
lowerback 8.64065 1.12531 -1.71425
upperback -0.243257 1.32172 -0.0395342
thorax -5.14112 0.696709 0.75172
lowerneck -22.1766 -5.22893 -11.7714
upperneck 30.8584 -6.33037 9.1252
head 15.2266 -2.81561 4.62312
rclavicle -4.21311e-015 -7.25564e-015
rhumerus -34.0722 -10.4368 -83.4031
rradius 27.391
rwrist 9.53641
rhand -14.331 7.88666
rfingers 7.12502
rthumb 11.8099 -21.7603
lclavicle -4.21311e-015 -7.25564e-015
lhumerus -35.3584 3.42841 87.3361
lradius 30.3377
lwrist -8.53502
lhand -15.5013 25.8417
lfingers 7.12502
lthumb 10.6812 55.5502
rfemur -4.0139 1.42234 19.0501
rtibia 23.0549
rfoot -12.1516 -3.01425
rtoes -3.53997
lfemur 2.34124 -1.67684 -22.5873
ltibia 10.6502
lfoot -5.93616 -4.47727
ltoes -3.58967
883
root 0.914985 18.1311 3.26988 -2.65228 -0.343096 -359.307
lowerback 8.6541 1.09596 -1.71559
upperback -0.219585 1.28282 -0.0315268
thorax -5.12307 0.677382 0.765927
lowerneck -22.2339 -5.24813 -11.7347
upperneck 30.912 -6.32623 9.00208
head 15.2569 -2.82614 4.56598
rclavicle -1.68891e-014 1.20762e-014
rhumerus -34.0511 -10.502 -83.3667
rradius 27.3281
rwrist 9.32635
rhand -14.486 7.8143
rfingers 7.12502
rthumb 11.6605 -21.8412
lclavicle -1.68891e-014 1.20762e-014
lhumerus -35.2676 3.46416 87.3034
lradius 30.3639
lwrist -8.87852
lhand -16.0526 25.1261
lfingers 7.12502
lthumb 10.1494 54.8613
rfemur -4.04141 1.5012 19.1144
rtibia 23.1002
rfoot -12.1831 -3.0471
rtoes -3.53199
lfemur 2.38881 -1.55916 -22.526
ltibia 10.5741
lfoot -5.95524 -4.53627
ltoes -3.98071
884
root 0.908209 18.1314 3.27399 -2.61163 -0.343195 -359.231
lowerback 8.56879 1.03978 -1.81538
upperback -0.183086 1.20014 -0.0290023
thorax -5.03674 0.638403 0.837273
lowerneck -22.2689 -5.23374 -11.7711
upperneck 30.9193 -6.25754 8.92366
head 15.2565 -2.81193 4.55212
rclavicle -7.9312e-015 -6.70898e-016
rhumerus -33.9057 -10.4599 -83.3345
rradius 27.1161
rwrist 9.09195
rhand -14.5606 7.91274
rfingers 7.12502
rthumb 11.5885 -21.7468
lclavicle -7.9312e-015 -6.70898e-016
lhumerus -35.1566 3.58891 87.2363
lradius 30.4329
lwrist -9.50457
lhand -15.9957 25.5151
lfingers 7.12502
lthumb 10.2043 55.2476
rfemur -4.0966 1.48587 19.0555
rtibia 23.127
rfoot -12.178 -3.05774
rtoes -3.79042
lfemur 2.37951 -1.63254 -22.5945
ltibia 10.5331
lfoot -5.93855 -4.44771
ltoes -3.98111
885
root 0.901259 18.1303 3.279 -2.60921 -0.345199 -359.109
lowerback 8.56808 1.01651 -1.94951
upperback -0.193732 1.15307 -0.0767398
thorax -5.0479 0.618105 0.868979
lowerneck -22.1926 -5.22032 -11.7255
upperneck 30.9255 -6.24175 8.85628
head 15.2348 -2.81104 4.51831
rclavicle 5.47357e-015 1.963e-015
rhumerus -33.9683 -10.3314 -83.3616
rradius 27.1305
rwrist 9.05689
rhand -14.4992 7.91801
rfingers 7.12502
rthumb 11.6478 -21.7382
lclavicle 5.47357e-015 1.963e-015
lhumerus -35.1647 3.51425 87.219
lradius 30.4633
lwrist -9.4922
lhand -16.0841 25.1685
lfingers 7.12502
lthumb 10.1191 54.9051
rfemur -4.10769 1.46771 18.9465
rtibia 23.133
rfoot -12.1844 -3.06468
rtoes -3.85757
lfemur 2.40981 -1.59244 -22.7037
ltibia 10.5279
lfoot -5.9506 -4.45983
ltoes -4.06195
886
root 0.893351 18.1304 3.28252 -2.605 -0.383782 -359.052
lowerback 8.59231 1.00213 -2.00527
upperback -0.220114 1.125 -0.123601
thorax -5.08847 0.605538 0.854525
lowerneck -22.1478 -5.20148 -11.63
upperneck 30.9626 -6.22853 8.76797
head 15.2318 -2.8078 4.46755
rclavicle 1.85134e-014 -6.73383e-015
rhumerus -34.1115 -10.1116 -83.4498
rradius 27.3313
rwrist 9.04113
rhand -14.3788 7.64168
rfingers 7.12502
rthumb 11.7639 -22.008
lclavicle 1.85134e-014 -6.73383e-015
lhumerus -35.1471 3.38638 87.2498
lradius 30.2987
lwrist -8.88913
lhand -17.1866 23.1688
lfingers 7.12502
lthumb 9.05532 52.9545
rfemur -4.11112 1.46482 18.9064
rtibia 23.1274
rfoot -12.2001 -3.03132
rtoes -3.56413
lfemur 2.43963 -1.56088 -22.7439
ltibia 10.5188
lfoot -5.94769 -4.44298
ltoes -4.24363
887
root 0.886173 18.1295 3.2855 -2.59582 -0.431898 -359.07
lowerback 8.61529 0.98007 -1.97915
upperback -0.246823 1.09646 -0.14203
thorax -5.1276 0.590999 0.823738
lowerneck -22.0432 -5.16384 -11.4869
upperneck 30.9263 -6.17239 8.58132
head 15.1688 -2.79445 4.37115
rclavicle 2.51199e-016 0
rhumerus -34.1969 -10.1962 -83.3648
rradius 27.4644
rwrist 9.74012
rhand -14.4789 8.05778
rfingers 7.12502
rthumb 11.6673 -21.5974
lclavicle 2.51199e-016 0
lhumerus -35.1519 3.37603 87.2355
lradius 30.1739
lwrist -8.51624
lhand -17.342 23.1155
lfingers 7.12502
lthumb 8.90534 52.9076
rfemur -4.10847 1.48908 18.9535
rtibia 23.1222
rfoot -12.2052 -3.04084
rtoes -3.81662
lfemur 2.4576 -1.69744 -22.7269
ltibia 10.4998
lfoot -5.9257 -4.2563
ltoes -4.343
888
root 0.87923 18.1314 3.28611 -2.55669 -0.472333 -359.121
lowerback 8.67811 0.977274 -1.8964
upperback -0.315498 1.09712 -0.17681
thorax -5.23261 0.589857 0.739232
lowerneck -21.7922 -5.14533 -11.3826
upperneck 30.8067 -6.1749 8.48634
head 15.0487 -2.79998 4.30673
rclavicle 1.73898e-014 -4.27387e-015
rhumerus -34.3112 -10.4011 -83.2642
rradius 27.4566
rwrist 9.98719
rhand -14.755 8.76609
rfingers 7.12502
rthumb 11.401 -20.9039
lclavicle 1.73898e-014 -4.27387e-015
lhumerus -35.2012 3.37477 87.1555
lradius 30.111
lwrist -8.3794
lhand -16.2806 24.7971
lfingers 7.12502
lthumb 9.92949 54.5429
rfemur -4.1454 1.54487 19.0339
rtibia 23.1283
rfoot -12.2335 -3.02932
rtoes -3.43849
lfemur 2.43001 -1.93036 -22.6834
ltibia 10.4625
lfoot -5.87471 -3.97983
ltoes -4.2634
889
root 0.871824 18.1344 3.28677 -2.54919 -0.511631 -359.178
lowerback 8.75272 0.97078 -1.84095
upperback -0.344729 1.09195 -0.180666
thorax -5.30401 0.586392 0.703245
lowerneck -21.7244 -5.15251 -11.3789
upperneck 30.8004 -6.19344 8.48104
head 15.0327 -2.80969 4.29999
rclavicle -8.11445e-016 -7.95139e-016
rhumerus -34.4098 -10.2893 -83.3307
rradius 27.4702
rwrist 9.20493
rhand -14.6539 8.55416
rfingers 7.12502
rthumb 11.4985 -21.1105
lclavicle -8.11445e-016 -7.95139e-016
lhumerus -35.1738 3.4829 87.0598
lradius 30.03
lwrist -8.38056
lhand -16.1937 24.4578
lfingers 7.12502
lthumb 10.0133 54.1996
rfemur -4.14172 1.58916 19.1229
rtibia 23.1345
rfoot -12.2502 -2.98303
rtoes -2.75385
lfemur 2.43284 -2.03304 -22.6138
ltibia 10.4269
lfoot -5.84791 -3.80971
ltoes -4.67846
890
root 0.864704 18.1373 3.2895 -2.54949 -0.586565 -359.207
lowerback 8.78508 0.943015 -1.81669
upperback -0.352039 1.05765 -0.162742
thorax -5.32888 0.569254 0.712275
lowerneck -21.8416 -5.17129 -11.5516
upperneck 30.9646 -6.19175 8.59522
head 15.1474 -2.81421 4.38675
rclavicle -3.62627e-015 4.72114e-015
rhumerus -34.4712 -9.95106 -83.4701
rradius 27.5336
rwrist 8.59643
rhand -14.5201 8.32232
rfingers 7.12502
rthumb 11.6276 -21.3351
lclavicle -3.62627e-015 4.72114e-015
lhumerus -35.1084 3.81701 86.8808
lradius 30.0275
lwrist -9.03219
lhand -16.4187 23.9283
lfingers 7.12502
lthumb 9.79626 53.6804
rfemur -4.12979 1.57314 19.1708
rtibia 23.1319
rfoot -12.2711 -2.85938
rtoes -2.23978
lfemur 2.45132 -2.05132 -22.571
ltibia 10.4229
lfoot -5.83978 -3.68836
ltoes -5.1075
891
root 0.858844 18.138 3.29219 -2.52489 -0.618171 -359.23
lowerback 8.7819 0.899045 -1.77402
upperback -0.372635 1.00423 -0.147314
thorax -5.34672 0.542204 0.711334
lowerneck -21.8942 -5.17861 -11.673
upperneck 31.0974 -6.17183 8.63509
head 15.2255 -2.81621 4.43513
rclavicle -6.07147e-015 1.78906e-015
rhumerus -34.5086 -9.88298 -83.477
rradius 27.5389
rwrist 8.73478
rhand -14.6915 8.56353
rfingers 7.12502
rthumb 11.4623 -21.1031
lclavicle -6.07147e-015 1.78906e-015
lhumerus -35.0888 4.08503 86.7311
lradius 30.0591
lwrist -9.49017
lhand -16.5206 24.196
lfingers 7.12502
lthumb 9.69791 53.9528
rfemur -4.1582 1.51912 19.21
rtibia 23.1398
rfoot -12.2488 -2.76872
rtoes -2.33377
lfemur 2.45769 -2.16071 -22.5393
ltibia 10.405
lfoot -5.7988 -3.58749
ltoes -5.01216
892
root 0.853108 18.1365 3.29337 -2.50327 -0.648359 -359.277
lowerback 8.76314 0.863571 -1.73148
upperback -0.364329 0.963305 -0.12129
thorax -5.32602 0.52104 0.720332
lowerneck -21.8764 -5.17193 -11.6707
upperneck 31.0828 -6.13834 8.56392
head 15.2069 -2.81196 4.40972
rclavicle -1.43199e-014 1.2424e-015
rhumerus -34.4725 -9.84201 -83.4778
rradius 27.548
rwrist 8.80013
rhand -14.8001 8.44501
rfingers 7.12502
rthumb 11.3575 -21.2274
lclavicle -1.43199e-014 1.2424e-015
lhumerus -35.0725 4.27764 86.613
lradius 30.1458
lwrist -10.0538
lhand -16.3713 24.9794
lfingers 7.12502
lthumb 9.84192 54.7294
rfemur -4.20144 1.50229 19.2835
rtibia 23.1677
rfoot -12.2542 -2.74217
rtoes -2.48256
lfemur 2.45936 -2.18034 -22.4696
ltibia 10.378
lfoot -5.77353 -3.53533
ltoes -5.23975
893
root 0.846015 18.137 3.29441 -2.53944 -0.755249 -359.304
lowerback 8.76047 0.861313 -1.76276
upperback -0.302008 0.960729 -0.064332
thorax -5.26068 0.52059 0.798186
lowerneck -21.8604 -5.14498 -11.6463
upperneck 30.9933 -6.05573 8.43261
head 15.1436 -2.7912 4.36088
rclavicle -2.20837e-015 -5.71506e-016
rhumerus -34.4523 -9.79006 -83.4152
rradius 27.7995
rwrist 9.03873
rhand -14.9655 8.32955
rfingers 7.12502
rthumb 11.198 -21.3516
lclavicle -2.20837e-015 -5.71506e-016
lhumerus -34.9822 4.3051 86.6647
lradius 30.1317
lwrist -9.87226
lhand -16.0113 25.4795
lfingers 7.12502
lthumb 10.1892 55.2127
rfemur -4.18994 1.55082 19.3413
rtibia 23.2149
rfoot -12.2996 -2.69137
rtoes -2.22947
lfemur 2.53568 -2.17411 -22.425
ltibia 10.3367
lfoot -5.77057 -3.41078
ltoes -5.45295
894
root 0.837364 18.1374 3.29482 -2.51103 -0.850155 -359.23
lowerback 8.69244 0.879155 -1.89573
upperback -0.247108 0.973436 -0.051713
thorax -5.16777 0.529562 0.885825
lowerneck -21.8907 -5.12215 -11.6601
upperneck 30.8974 -5.99986 8.41677
head 15.0982 -2.76921 4.36323
rclavicle 1.79178e-015 2.88238e-015
rhumerus -34.4292 -9.9723 -83.2682
rradius 28.0894
rwrist 9.77212
rhand -15.1454 8.50795
rfingers 7.12502
rthumb 11.0245 -21.1825
lclavicle 1.79178e-015 2.88238e-015
lhumerus -34.8681 4.17264 86.7781
lradius 30.0856
lwrist -9.1222
lhand -15.8265 25.799
lfingers 7.12502
lthumb 10.3675 55.5234
rfemur -4.26414 1.58119 19.2867
rtibia 23.3102
rfoot -12.3366 -2.61633
rtoes -2.17148
lfemur 2.58613 -2.07467 -22.4761
ltibia 10.2014
lfoot -5.74693 -3.40314
ltoes -5.64321
895
root 0.830089 18.1387 3.29442 -2.41742 -0.86568 -359.1
lowerback 8.63501 0.877695 -2.03198
upperback -0.27179 0.956748 -0.0875124
thorax -5.1625 0.524584 0.927901
lowerneck -21.9031 -5.09983 -11.6862
upperneck 30.8761 -5.9686 8.45964
head 15.0896 -2.75261 4.39167
rclavicle 2.51925e-014 1.51573e-015
rhumerus -34.4698 -10.1406 -83.1766
rradius 28.2186
rwrist 10.0927
rhand -15.123 8.72237
rfingers 7.12502
rthumb 11.0461 -20.967
lclavicle 2.51925e-014 1.51573e-015
lhumerus -34.8991 4.08359 86.7675
lradius 30.2057
lwrist -8.9055
lhand -16.2674 25.073
lfingers 7.12502
lthumb 9.94216 54.8182
rfemur -4.41747 1.54362 19.1637
rtibia 23.428
rfoot -12.3927 -2.57477
rtoes -2.37921
lfemur 2.60986 -2.10417 -22.5899
ltibia 9.9748
lfoot -5.64141 -3.38398
ltoes -5.86846
896
root 0.823035 18.1406 3.29571 -2.29556 -0.861902 -358.874
lowerback 8.56098 0.868681 -2.25555
upperback -0.32092 0.918951 -0.170317
thorax -5.17342 0.511217 0.972844
lowerneck -21.8591 -5.07884 -11.6619
upperneck 30.8553 -5.95837 8.47887
head 15.0683 -2.74339 4.39703
rclavicle -1.82866e-016 7.45443e-017
rhumerus -34.5333 -9.96921 -83.2988
rradius 28.2665
rwrist 9.27457
rhand -14.9931 8.69182
rfingers 7.12502
rthumb 11.1714 -20.9908
lclavicle -1.82866e-016 7.45443e-017
lhumerus -34.8948 4.09634 86.644
lradius 30.2312
lwrist -9.07406
lhand -17.0243 23.7791
lfingers 7.12502
lthumb 9.21194 53.5579
rfemur -4.60572 1.50488 18.9272
rtibia 23.5461
rfoot -12.4808 -2.54
rtoes -2.49537
lfemur 2.59846 -2.15003 -22.8197
ltibia 9.75781
lfoot -5.50876 -3.32245
ltoes -6.13433
